# xmcd CD database file
#
# Track frame offsets:
#	150
#	22977
#	36609
#	53616
#	69838
#	88535
#	106400
#	122473
#	140274
#	153951
#	169871
#	188961
#	206774
#	223686
#	240201
#	258392
#	281946
#	308718
#	334113
#
# Disc length: 4652 seconds
#
# Revision: 20
# Processed by: cddbd v1.5.2PL0 Copyright (c) Steve Scherf et al.
# Submitted via: CDex 1.70beta2
#
DISCID=0a122a13
DTITLE=ORANGE RANGE - ИATURAL
DYEAR=2005
DGENRE=JPop
TTITLE0=yumekaze
TTITLE1=夢人
TTITLE2=お願い！セニョリータ
TTITLE3=Winter Winner
TTITLE4=CRAZY BAND
TTITLE5=雨
TTITLE6=GOD69
TTITLE7=HYSTERIC TAXI
TTITLE8=pe nyom pong
TTITLE9=盃Jammer
TTITLE10=*～アスタリスク～
TTITLE11=sunrise
TTITLE12=U topia
TTITLE13=BETWEEN
TTITLE14=re-cycle
TTITLE15=キズナ
TTITLE16=ラヴ・パレード
TTITLE17=Иatural Pop
TTITLE18=Kirikirimai ～Fantastic For Remix～
EXTD=YEAR: 2005
EXTT0=
EXTT1=
EXTT2=
EXTT3=
EXTT4=
EXTT5=
EXTT6=
EXTT7=
EXTT8=
EXTT9=
EXTT10=
EXTT11=
EXTT12=
EXTT13=
EXTT14=
EXTT15=
EXTT16=
EXTT17=
EXTT18=
PLAYORDER=
